<svg width="146" height="35" viewBox="0 0 146 35" fill="none" xmlns="http://www.w3.org/2000/svg">
<g filter="url(#filter0_d)">
<path d="M143 14.35C143 6.67948 136.999 0.412455 129.451 0.0229142V0H17.3032C9.40075 0 3 6.4217 3 14.35C3 22.2783 9.40075 28.7 17.3032 28.7H129.451V28.6828C136.999 28.2875 143 22.0205 143 14.35Z" fill="#FFA41B"/>
</g>
<path d="M120.612 13.4955C120.712 13.0835 120.875 12.6979 121.096 12.3493L116.258 7.71704C114.936 9.31218 114.083 11.3087 113.904 13.4955H120.612Z" fill="black"/>
<path d="M125.071 3.98798V10.7119C125.502 10.8122 125.908 10.9812 126.271 11.2189L130.883 6.36484C129.282 5.02323 127.271 4.157 125.071 3.98798Z" fill="black"/>
<path d="M121.206 16.5431C120.896 16.1047 120.675 15.5976 120.575 15.0483H113.894C114.052 17.4886 115.047 19.7017 116.595 21.3972L121.206 16.5431Z" fill="black"/>
<path d="M122.175 11.2453C122.575 10.976 123.033 10.7858 123.528 10.6854V3.97742C121.154 4.14116 118.995 5.10775 117.326 6.60781L122.175 11.2453Z" fill="black"/>
<path d="M127.919 15.043C127.835 15.492 127.677 15.9093 127.45 16.2896L132.299 20.9271C133.621 19.3003 134.458 17.2667 134.6 15.043H127.919Z" fill="black"/>
<path d="M123.528 18.0432C123.102 17.9587 122.707 17.8055 122.344 17.5889L117.716 22.4589C119.327 23.7688 121.333 24.6033 123.528 24.7512V18.0432Z" fill="black"/>
<path d="M127.366 12.307C127.603 12.6662 127.777 13.0676 127.882 13.5007H134.589C134.4 11.182 133.452 9.07978 131.994 7.44238L127.366 12.307Z" fill="black"/>
<path d="M126.403 17.4252C126.008 17.7051 125.56 17.9111 125.071 18.0221V24.7459C127.44 24.5611 129.588 23.5733 131.241 22.0574L126.403 17.4252Z" fill="black"/>
<path d="M13.9122 19.052C12.6066 17.5995 11.9537 15.8882 11.9537 13.918C11.9537 11.9479 12.6171 10.2471 13.9491 8.82097C15.281 7.39485 16.9131 6.68179 18.8399 6.68179C20.7721 6.68179 22.3778 7.4107 23.6571 8.86322C24.9891 10.2629 25.6524 11.9584 25.6524 13.9497C25.6524 15.941 24.9891 17.6418 23.6571 19.0573C23.0412 19.6964 22.3199 20.2141 21.4828 20.6102L21.0301 20.7845C21.8935 21.2546 22.6305 21.4923 23.2412 21.4923C23.8519 21.4923 24.4889 21.244 25.1418 20.7475C25.3892 20.5521 25.6682 20.4729 25.9736 20.5098C26.2789 20.5468 26.5316 20.6947 26.7264 20.943C26.9212 21.1912 27.0002 21.4712 26.9634 21.7881C26.9265 22.0997 26.7738 22.3638 26.5106 22.5751C25.4419 23.3991 24.3626 23.811 23.2833 23.811H23.2254C22.1567 23.811 20.9616 23.4202 19.6454 22.6332C19.2927 22.4377 18.94 22.3374 18.5767 22.3374C18.2187 22.3374 17.8923 22.3796 17.5975 22.4642C17.3027 22.5487 17.1237 22.6173 17.0605 22.6702C16.6446 22.9078 16.2655 22.8867 15.9233 22.612C15.8865 22.5751 15.8338 22.5539 15.7654 22.5539C15.4021 22.0416 15.281 21.6243 15.4021 21.2969C15.5285 20.9694 15.7338 20.7317 16.0181 20.5891L16.076 20.5521C15.2863 20.1665 14.565 19.67 13.9122 19.052ZM18.8031 18.8777C20.0929 18.8777 21.1827 18.3918 22.0619 17.4252C22.9411 16.4586 23.3834 15.2966 23.3834 13.9391C23.3834 12.5817 22.9411 11.425 22.0514 10.4531C21.1617 9.48649 20.0824 9.00055 18.8031 9.00055C17.5238 9.00055 16.4603 9.48121 15.6127 10.432C14.7124 11.3616 14.2597 12.513 14.2597 13.8863C14.2597 15.2596 14.6914 16.4375 15.56 17.4094C16.434 18.3865 17.5132 18.8777 18.8031 18.8777Z" fill="black"/>
<path d="M35.5975 16.5378C35.5975 17.6523 35.1921 18.6083 34.3761 19.4165C33.5601 20.2193 32.5966 20.626 31.4805 20.626C30.3644 20.626 29.4063 20.2246 28.6008 19.427C27.8005 18.6295 27.3951 17.6682 27.3951 16.5378V11.8422C27.3951 11.5675 27.4952 11.3246 27.7005 11.1133C27.9006 10.902 28.148 10.8017 28.4323 10.8017C28.7166 10.8017 28.964 10.9073 29.1641 11.1133C29.3641 11.3246 29.4694 11.5675 29.4694 11.8422V16.5378C29.4694 17.103 29.6642 17.5731 30.0485 17.9639C30.4329 18.3495 30.9067 18.5449 31.47 18.5449C32.0333 18.5449 32.5124 18.3495 32.9073 17.9639C33.3074 17.5784 33.5127 17.103 33.5232 16.5378V11.8422C33.5232 11.5675 33.6233 11.3246 33.8181 11.1133C34.0128 10.902 34.2498 10.8017 34.5341 10.8017C34.8131 10.8017 35.0605 10.9073 35.2764 11.1133C35.4922 11.3246 35.5975 11.5675 35.5975 11.8422V16.5378Z" fill="black"/>
<path d="M40.3146 7.93889V8.35088C40.3146 8.65195 40.2146 8.90548 40.0093 9.11676C39.8092 9.32803 39.5565 9.42839 39.267 9.42839C38.9721 9.42839 38.7194 9.32275 38.5141 9.11676C38.3035 8.90548 38.2035 8.65195 38.2035 8.35088V7.93889C38.2035 7.65367 38.3088 7.40013 38.5141 7.19414C38.7247 6.98286 38.9721 6.88251 39.267 6.88251C39.5618 6.88251 39.8092 6.98286 40.0093 7.18886C40.2146 7.38429 40.3146 7.63782 40.3146 7.93889ZM38.5036 11.1292C38.7036 10.9285 38.9563 10.8228 39.2564 10.8228C39.5565 10.8228 39.8092 10.9232 40.0093 11.1292C40.2093 11.3299 40.3146 11.5887 40.3146 11.9056V19.5644C40.3146 19.8655 40.2146 20.119 40.0093 20.3197C39.8092 20.5204 39.5565 20.626 39.267 20.626C38.9721 20.626 38.7194 20.5204 38.5141 20.3144C38.3035 20.1031 38.2035 19.8549 38.2035 19.5697V11.9109C38.2035 11.5887 38.3035 11.3299 38.5036 11.1292Z" fill="black"/>
<path d="M43.0575 19.1788C42.0782 18.2175 41.5886 17.0607 41.5886 15.7138C41.5886 14.367 42.0782 13.2155 43.0575 12.2595C44.0367 11.3034 45.2055 10.8175 46.5585 10.8069C47.6957 10.8069 48.7328 11.1661 49.6699 11.8845C49.891 12.0535 50.0227 12.2859 50.0595 12.5817C50.0964 12.8775 50.0279 13.1363 49.8542 13.3581C49.6805 13.58 49.4488 13.712 49.1698 13.749C48.8908 13.7859 48.638 13.7173 48.4169 13.5324C47.8431 13.1151 47.1955 12.9039 46.469 12.9039C45.7425 12.9039 45.0949 13.1838 44.5211 13.749C43.9472 14.3141 43.6576 14.9744 43.6576 15.7297C43.6576 16.4903 43.9419 17.1452 44.5105 17.7051C45.0791 18.2597 45.7267 18.5397 46.4585 18.5397C47.1903 18.5397 47.8431 18.3284 48.4169 17.9111C48.6275 17.7421 48.875 17.6734 49.1593 17.7157C49.4435 17.7527 49.6805 17.8847 49.8542 18.1066C50.0279 18.3284 50.0964 18.5819 50.0595 18.8619C50.0227 19.1418 49.891 19.3848 49.6699 19.5802C48.7065 20.2721 47.6693 20.6207 46.5585 20.6207C45.2002 20.626 44.0367 20.1401 43.0575 19.1788Z" fill="black"/>
<path d="M53.8925 20.3091C53.6766 20.5204 53.4186 20.6207 53.1186 20.6207C52.8185 20.6207 52.5658 20.5151 52.3552 20.3091C52.1446 20.0978 52.0446 19.8443 52.0446 19.5432V7.95471C52.0446 7.65364 52.1499 7.40011 52.3552 7.18883C52.5658 6.97755 52.8185 6.8772 53.1186 6.8772C53.4186 6.8772 53.6766 6.98284 53.8925 7.18883C54.1083 7.40011 54.2136 7.65364 54.2136 7.95471V14.7472L58.2253 10.7224C58.4359 10.5112 58.6886 10.4108 58.9887 10.4108C59.2888 10.4108 59.5467 10.5164 59.7626 10.7224C59.9784 10.9337 60.0837 11.1872 60.0837 11.4883C60.0837 11.7894 59.9732 12.0429 59.752 12.2542L56.8144 15.2015L59.831 18.8354C60.1153 19.1999 60.1574 19.5908 59.9468 20.0028C59.7363 20.4147 59.4362 20.6207 59.0466 20.6207C58.657 20.6207 58.3622 20.4887 58.1674 20.2299L55.2876 16.7332L54.2136 17.8108V19.5379C54.2136 19.8443 54.1083 20.0978 53.8925 20.3091Z" fill="black"/>
<path d="M69.3651 8.11317C70.1864 8.93714 70.5971 9.93014 70.5971 11.0869C70.5971 12.2436 70.1864 13.2366 69.3651 14.05C68.5438 14.8687 67.5488 15.2754 66.3906 15.2754H63.9846V19.5379C63.9846 19.839 63.8793 20.0926 63.6635 20.3038C63.4476 20.5151 63.1896 20.6155 62.8895 20.6155C62.5895 20.6155 62.3368 20.5098 62.1262 20.3038C61.9156 20.0926 61.8156 19.839 61.8156 19.5379V7.95471C61.8156 7.65364 61.9208 7.40011 62.1262 7.18883C62.3368 6.97755 62.5895 6.8772 62.8895 6.8772H66.3906C67.5488 6.8772 68.5386 7.28919 69.3651 8.11317ZM63.9793 9.05863V13.1046H66.3853C66.9486 13.1046 67.4224 12.9091 67.812 12.513C68.2016 12.1221 68.4069 11.6468 68.4175 11.0974C68.4069 10.5217 68.2016 10.0358 67.812 9.64492C67.4224 9.25406 66.9434 9.05335 66.3853 9.05335H63.9793V9.05863Z" fill="black"/>
<path d="M80.4002 15.4603C80.4002 15.7508 80.3054 15.9832 80.1159 16.1575C79.9264 16.3318 79.6737 16.4216 79.363 16.4216H73.1402C73.256 16.9868 73.4771 17.4146 73.8035 17.7157C74.2194 18.2016 74.8301 18.4921 75.6356 18.5872C76.4359 18.6876 77.1308 18.5238 77.7205 18.1065C77.9152 17.8953 78.1785 17.7949 78.5049 17.7949C78.8313 17.7949 79.0577 17.8794 79.1893 18.0484C79.5526 18.4552 79.5526 18.8777 79.1893 19.3267C78.2522 20.1929 77.0992 20.6207 75.7357 20.6155C74.3721 20.6102 73.2297 20.1295 72.3084 19.1735C71.387 18.2175 70.9238 17.066 70.908 15.7191C70.9185 14.3722 71.387 13.2155 72.3084 12.2542C73.2297 11.2929 74.3405 10.8122 75.6462 10.8122C76.9518 10.8122 78.0521 11.2401 78.9419 12.101C79.8369 12.9567 80.3212 14.05 80.4002 15.3705V15.4603ZM75.683 12.6715C74.9249 12.7084 74.3195 12.9461 73.8614 13.3792C73.4034 13.8124 73.1297 14.2719 73.0402 14.7525H78.5786C78.4628 14.293 78.1469 13.8493 77.631 13.4162C77.115 12.9831 76.4675 12.7348 75.683 12.6715Z" fill="black"/>
<path d="M84.2169 19.5802C84.2169 19.8707 84.1063 20.1137 83.8852 20.3144C83.6641 20.5151 83.4114 20.6207 83.1323 20.6207C82.8533 20.6207 82.6111 20.5204 82.4058 20.3144C82.2058 20.1137 82.1005 19.8654 82.1005 19.5802V11.8475C82.1005 11.5623 82.2005 11.314 82.4058 11.1133C82.6059 10.9126 82.8533 10.8069 83.1376 10.8069C83.5798 10.8069 83.901 11.0077 84.0958 11.4144C84.7328 11.0077 85.4277 10.8069 86.1701 10.8069C87.3072 10.8069 88.2707 11.2084 89.0656 12.0165C89.8606 12.8194 90.2607 13.7807 90.2607 14.8951V19.5908C90.2607 19.8813 90.1607 20.1242 89.9659 20.325C89.7711 20.5257 89.5342 20.6313 89.2499 20.6313C88.9709 20.6313 88.7234 20.5309 88.5181 20.325C88.3075 20.1242 88.2075 19.876 88.2075 19.5908V14.8951C88.2075 14.3458 88.0074 13.8757 87.6126 13.4902C87.2125 13.1046 86.7386 12.9091 86.1859 12.9091C85.6331 12.9091 85.1645 13.1046 84.7855 13.4902C84.4064 13.8757 84.2169 14.3458 84.2169 14.8951V19.5802Z" fill="black"/>
<path d="M94.8095 19.5802C94.8095 19.8707 94.699 20.1137 94.4778 20.3144C94.2567 20.5151 94.004 20.6207 93.725 20.6207C93.446 20.6207 93.2038 20.5204 92.9985 20.3144C92.7984 20.1137 92.6931 19.8654 92.6931 19.5802V11.8475C92.6931 11.5623 92.7931 11.314 92.9985 11.1133C93.1985 10.9126 93.446 10.8069 93.7303 10.8069C94.1725 10.8069 94.4936 11.0077 94.6884 11.4144C95.3255 11.0077 96.0204 10.8069 96.7627 10.8069C97.8999 10.8069 98.8633 11.2084 99.6583 12.0165C100.453 12.8194 100.853 13.7807 100.853 14.8951V19.5908C100.853 19.8813 100.753 20.1242 100.559 20.325C100.364 20.5257 100.127 20.6313 99.8426 20.6313C99.5635 20.6313 99.3161 20.5309 99.1108 20.325C98.9002 20.1242 98.8002 19.876 98.8002 19.5908V14.8951C98.8002 14.3458 98.6001 13.8757 98.2052 13.4902C97.8051 13.1046 97.3313 12.9091 96.7785 12.9091C96.2257 12.9091 95.7572 13.1046 95.3781 13.4902C94.999 13.8757 94.8095 14.3458 94.8095 14.8951V19.5802Z" fill="black"/>
<path d="M108.882 11.0975C109.077 10.902 109.319 10.8017 109.608 10.8017C109.893 10.8017 110.145 10.902 110.351 11.108C110.561 11.3087 110.661 11.557 110.661 11.8422V19.2633C110.661 20.5732 110.209 21.6824 109.303 22.5909C108.398 23.4994 107.292 23.9536 105.986 23.9536C105.297 23.9536 104.623 23.7899 103.97 23.4624C103.696 23.3462 103.512 23.1508 103.422 22.8814C103.333 22.612 103.344 22.3426 103.459 22.068C103.591 21.8303 103.796 21.6666 104.075 21.5768C104.354 21.487 104.654 21.5187 104.965 21.6771C105.276 21.8356 105.67 21.9095 106.139 21.9043C106.608 21.899 107.071 21.7299 107.518 21.3919C107.971 21.0591 108.271 20.6366 108.429 20.1242C107.882 20.4359 107.26 20.5943 106.571 20.5943C105.449 20.5943 104.486 20.1876 103.686 19.3742C102.885 18.5608 102.48 17.5942 102.48 16.4692V11.8369C102.48 11.5517 102.58 11.3035 102.785 11.1027C102.986 10.902 103.233 10.7964 103.517 10.7964C103.802 10.7964 104.044 10.8967 104.244 11.0922C104.444 11.2876 104.539 11.5359 104.539 11.8369V16.4692C104.539 17.0343 104.739 17.5044 105.134 17.8953C105.534 18.2809 106.013 18.4763 106.571 18.4763C107.134 18.4763 107.608 18.2809 107.997 17.8953C108.387 17.5097 108.587 17.0343 108.587 16.4692V11.8369C108.587 11.5464 108.687 11.2982 108.882 11.0975Z" fill="black"/>
<defs>
<filter id="filter0_d" x="0.2" y="0" width="145.6" height="34.3" filterUnits="userSpaceOnUse" color-interpolation-filters="sRGB">
<feFlood flood-opacity="0" result="BackgroundImageFix"/>
<feColorMatrix in="SourceAlpha" type="matrix" values="0 0 0 0 0 0 0 0 0 0 0 0 0 0 0 0 0 0 127 0" result="hardAlpha"/>
<feOffset dy="2.8"/>
<feGaussianBlur stdDeviation="1.4"/>
<feColorMatrix type="matrix" values="0 0 0 0 0 0 0 0 0 0 0 0 0 0 0 0 0 0 0.25 0"/>
<feBlend mode="normal" in2="BackgroundImageFix" result="effect1_dropShadow"/>
<feBlend mode="normal" in="SourceGraphic" in2="effect1_dropShadow" result="shape"/>
</filter>
</defs>
</svg>
